<svg width="1595" height="1066" viewBox="0 0 1595 1066" fill="none" xmlns="http://www.w3.org/2000/svg">
<rect width="1595" height="1066" fill="white"/>
<path d="M167.686 149L181.528 110.952H187.909L201.726 149H195.529L192.049 138.717H177.389L173.882 149H167.686ZM184.666 117.254L178.971 133.971H190.44L184.771 117.254H184.666ZM216.438 149.554C208.344 149.554 203.281 143.99 203.281 135.104V135.078C203.281 126.298 208.449 120.734 216.359 120.734C223.505 120.734 227.829 125.322 228.304 130.543L228.33 130.728H222.898L222.846 130.517C222.239 127.801 220.13 125.507 216.412 125.507C211.982 125.507 209.108 129.198 209.108 135.131V135.157C209.108 141.222 212.035 144.781 216.438 144.781C219.945 144.781 222.187 142.751 222.872 139.745L222.898 139.534H228.383L228.356 139.719C227.75 145.282 223.109 149.554 216.438 149.554ZM242.146 149.554C236.662 149.554 234.025 147.233 234.025 141.696V125.797H230.044V121.262H234.025V114.037H239.853V121.262H245.047V125.797H239.853V141.354C239.853 144.175 241.118 145.019 243.518 145.019C244.124 145.019 244.625 144.966 245.047 144.913V149.316C244.388 149.422 243.307 149.554 242.146 149.554ZM252.852 116.99C251.006 116.99 249.529 115.514 249.529 113.721C249.529 111.901 251.006 110.425 252.852 110.425C254.724 110.425 256.174 111.901 256.174 113.721C256.174 115.514 254.724 116.99 252.852 116.99ZM250.004 149V121.262H255.699V149H250.004ZM269.199 149L259.206 121.262H265.271L272.231 143.437H272.363L279.324 121.262H285.257L275.316 149H269.199ZM291.611 116.99C289.766 116.99 288.289 115.514 288.289 113.721C288.289 111.901 289.766 110.425 291.611 110.425C293.483 110.425 294.934 111.901 294.934 113.721C294.934 115.514 293.483 116.99 291.611 116.99ZM288.764 149V121.262H294.459V149H288.764ZM310.068 149.554C304.584 149.554 301.947 147.233 301.947 141.696V125.797H297.966V121.262H301.947V114.037H307.774V121.262H312.969V125.797H307.774V141.354C307.774 144.175 309.04 145.019 311.439 145.019C312.046 145.019 312.547 144.966 312.969 144.913V149.316C312.31 149.422 311.229 149.554 310.068 149.554ZM320.958 158.255C319.851 158.255 318.664 158.123 317.979 157.991V153.535C318.427 153.641 319.086 153.746 319.851 153.746C322.54 153.746 324.017 153.034 324.966 150.345L325.44 149.026L315.342 121.262H321.512L328.499 143.832H328.684L335.671 121.262H341.683L331.347 150.292C329.29 156.04 326.39 158.255 320.958 158.255Z" fill="black"/>
<path d="M170.349 376V337.952H178.206L189.86 367.009H190.045L201.699 337.952H209.557V376H203.439V348.947H203.229L192.26 376H187.646L176.677 348.947H176.492V376H170.349ZM227.987 376.554C219.761 376.554 214.461 371.069 214.461 362.025V361.973C214.461 353.008 219.84 347.471 227.961 347.471C236.108 347.471 241.514 352.955 241.514 361.973V362.025C241.514 371.096 236.188 376.554 227.987 376.554ZM228.014 371.254C232.153 371.254 234.816 367.879 234.816 362.025V361.973C234.816 356.146 232.127 352.797 227.961 352.797C223.874 352.797 221.158 356.172 221.158 361.973V362.025C221.158 367.905 223.821 371.254 228.014 371.254ZM252.271 376L242.384 348.051H249.371L255.857 369.909H256.016L262.476 348.051H269.331L259.496 376H252.271ZM283.648 376.554C275.264 376.554 270.201 370.99 270.201 362.104V362.078C270.201 353.271 275.343 347.471 283.332 347.471C291.321 347.471 296.278 353.087 296.278 361.524V363.634H276.714C276.819 368.538 279.509 371.438 283.78 371.438C287.05 371.438 289.186 369.698 289.818 367.826L289.871 367.642H296.015L295.936 367.932C295.065 372.229 290.952 376.554 283.648 376.554ZM283.411 352.612C279.931 352.612 277.32 354.959 276.793 359.257H289.897C289.423 354.827 286.892 352.612 283.411 352.612Z" fill="#EE1648"/>
<path d="M182.899 440.633C175.042 440.633 169.953 436.256 169.452 430.244L169.426 429.928H173.987L174.014 430.191C174.409 433.936 177.837 436.52 182.899 436.52C187.883 436.52 191.284 433.725 191.284 429.69V429.638C191.284 424.971 187.936 422.36 182.609 422.36H177.837V418.353H182.398C186.934 418.353 190.098 415.558 190.098 411.761V411.708C190.098 407.727 187.487 405.433 182.847 405.433C178.364 405.433 175.174 407.806 174.778 411.655L174.752 411.919H170.19L170.217 411.655C170.823 405.459 175.728 401.319 182.847 401.319C190.098 401.319 194.87 405.354 194.87 411.128V411.181C194.87 415.874 191.548 419.091 186.802 420.093V420.198C192.339 420.673 196.109 424.127 196.109 429.532V429.585C196.109 435.939 190.52 440.633 182.899 440.633ZM202.042 440V436.73L215.437 422.756C220.578 417.403 221.765 415.347 221.765 412.183V412.13C221.738 408.254 218.812 405.459 214.672 405.459C209.926 405.459 206.393 408.729 206.393 412.815V412.947H201.805V412.789C201.805 406.197 207.5 401.319 214.593 401.319C221.475 401.319 226.511 405.934 226.511 411.893V411.945C226.511 416.111 224.586 419.249 217.599 426.395L208.555 435.676V435.781H227.144V440H202.042ZM245.891 440.633C237.137 440.633 231.942 433.065 231.942 420.989V420.937C231.942 408.86 237.137 401.319 245.891 401.319C254.645 401.319 259.892 408.86 259.892 420.937V420.989C259.892 433.065 254.645 440.633 245.891 440.633ZM245.891 436.493C251.691 436.493 255.119 430.534 255.119 420.989V420.937C255.119 411.392 251.691 405.485 245.891 405.485C240.09 405.485 236.715 411.392 236.715 420.937V420.989C236.715 430.534 240.09 436.493 245.891 436.493ZM277.399 401.952L266.668 449.229H262.291L273.022 401.952H277.399ZM298.546 440V432.09H279.43V427.792L296.12 401.952H303.134V427.924H308.513V432.09H303.134V440H298.546ZM284.123 427.924H298.546V406.013H298.388L284.123 427.818V427.924ZM326.179 440.633C318.901 440.633 313.707 436.098 313.153 429.901L313.127 429.611H317.794L317.82 429.822C318.295 433.593 321.67 436.467 326.231 436.467C331.399 436.467 334.985 432.881 334.985 427.766V427.713C334.959 422.703 331.347 419.117 326.311 419.117C323.727 419.117 321.512 419.882 319.824 421.411C319.139 422.044 318.532 422.782 318.031 423.652H313.839L315.79 401.952H337.569V406.171H319.692L318.4 418.959H318.506C320.299 416.401 323.463 415.03 327.154 415.03C334.458 415.03 339.731 420.33 339.731 427.634V427.687C339.705 435.307 334.089 440.633 326.179 440.633ZM357.951 440.633C349.197 440.633 344.003 433.065 344.003 420.989V420.937C344.003 408.86 349.197 401.319 357.951 401.319C366.705 401.319 371.952 408.86 371.952 420.937V420.989C371.952 433.065 366.705 440.633 357.951 440.633ZM357.951 436.493C363.752 436.493 367.18 430.534 367.18 420.989V420.937C367.18 411.392 363.752 405.485 357.951 405.485C352.15 405.485 348.775 411.392 348.775 420.937V420.989C348.775 430.534 352.15 436.493 357.951 436.493Z" fill="black"/>
<path d="M170.349 592V553.952H194.976V559.674H177.151V569.931H194V575.441H177.151V586.278H194.976V592H170.349ZM198.192 592L207.236 578.052L198.298 564.051H205.681L211.297 573.859H211.455L217.019 564.051H224.19L215.199 577.867L224.111 592H216.939L211.139 581.98H210.98L205.206 592H198.192ZM239.141 592.554C230.756 592.554 225.693 586.99 225.693 578.104V578.078C225.693 569.271 230.835 563.471 238.824 563.471C246.813 563.471 251.771 569.087 251.771 577.524V579.634H232.206C232.312 584.538 235.001 587.438 239.272 587.438C242.542 587.438 244.678 585.698 245.311 583.826L245.363 583.642H251.507L251.428 583.932C250.558 588.229 246.444 592.554 239.141 592.554ZM238.903 568.612C235.423 568.612 232.812 570.959 232.285 575.257H245.39C244.915 570.827 242.384 568.612 238.903 568.612ZM256.016 592V564.051H262.581V568.876H262.713C263.583 565.501 265.903 563.471 269.12 563.471C269.938 563.471 270.702 563.603 271.203 563.734V569.667C270.649 569.456 269.647 569.298 268.54 569.298C264.822 569.298 262.581 571.645 262.581 575.784V592H256.016ZM285.863 592.554C277.558 592.554 272.363 586.964 272.363 577.999V577.973C272.363 569.061 277.637 563.471 285.784 563.471C293.141 563.471 297.729 568.138 298.124 573.728L298.15 573.938H291.954L291.901 573.701C291.348 570.985 289.344 568.797 285.863 568.797C281.724 568.797 279.061 572.304 279.061 578.025V578.052C279.061 583.879 281.75 587.254 285.89 587.254C289.212 587.254 291.321 585.276 291.928 582.35L291.98 582.112H298.177L298.15 582.297C297.649 588.124 292.93 592.554 285.863 592.554ZM305.586 560.043C303.529 560.043 301.921 558.408 301.921 556.457C301.921 554.453 303.529 552.845 305.586 552.845C307.643 552.845 309.225 554.453 309.225 556.457C309.225 558.408 307.643 560.043 305.586 560.043ZM302.29 592V564.051H308.855V592H302.29ZM325.361 592.554C318.031 592.554 313.839 589.073 313.259 583.879L313.232 583.642H319.692L319.745 583.879C320.246 586.278 322.065 587.702 325.388 587.702C328.578 587.702 330.503 586.41 330.503 584.354V584.327C330.503 582.64 329.527 581.69 326.627 581.031L321.986 580.003C316.634 578.816 313.944 576.206 313.944 572.066V572.04C313.944 566.925 318.4 563.471 325.15 563.471C332.111 563.471 336.172 567.294 336.409 572.119L336.436 572.409H330.318L330.292 572.198C330.002 569.957 328.209 568.322 325.15 568.322C322.25 568.322 320.431 569.667 320.431 571.724V571.75C320.431 573.358 321.512 574.413 324.412 575.072L329.079 576.101C334.854 577.393 337.095 579.66 337.095 583.721V583.747C337.095 589.021 332.217 592.554 325.361 592.554ZM353.574 592.554C345.189 592.554 340.127 586.99 340.127 578.104V578.078C340.127 569.271 345.269 563.471 353.258 563.471C361.247 563.471 366.204 569.087 366.204 577.524V579.634H346.64C346.745 584.538 349.435 587.438 353.706 587.438C356.976 587.438 359.111 585.698 359.744 583.826L359.797 583.642H365.94L365.861 583.932C364.991 588.229 360.878 592.554 353.574 592.554ZM353.337 568.612C349.856 568.612 347.246 570.959 346.719 575.257H359.823C359.349 570.827 356.817 568.612 353.337 568.612Z" fill="#8CF401"/>
<path d="M182.899 656.633C175.042 656.633 169.953 652.256 169.452 646.244L169.426 645.928H173.987L174.014 646.191C174.409 649.936 177.837 652.52 182.899 652.52C187.883 652.52 191.284 649.725 191.284 645.69V645.638C191.284 640.971 187.936 638.36 182.609 638.36H177.837V634.353H182.398C186.934 634.353 190.098 631.558 190.098 627.761V627.708C190.098 623.727 187.487 621.433 182.847 621.433C178.364 621.433 175.174 623.806 174.778 627.655L174.752 627.919H170.19L170.217 627.655C170.823 621.459 175.728 617.319 182.847 617.319C190.098 617.319 194.87 621.354 194.87 627.128V627.181C194.87 631.874 191.548 635.091 186.802 636.093V636.198C192.339 636.673 196.109 640.127 196.109 645.532V645.585C196.109 651.939 190.52 656.633 182.899 656.633ZM215.305 656.633C206.551 656.633 201.356 649.065 201.356 636.989V636.937C201.356 624.86 206.551 617.319 215.305 617.319C224.059 617.319 229.306 624.86 229.306 636.937V636.989C229.306 649.065 224.059 656.633 215.305 656.633ZM215.305 652.493C221.105 652.493 224.533 646.534 224.533 636.989V636.937C224.533 627.392 221.105 621.485 215.305 621.485C209.504 621.485 206.129 627.392 206.129 636.937V636.989C206.129 646.534 209.504 652.493 215.305 652.493ZM246.813 617.952L236.082 665.229H231.705L242.437 617.952H246.813ZM252.061 656L269.278 622.276V622.171H248.791V617.952H273.972V622.355L257.044 656H252.061ZM292.139 656.633C283.385 656.633 278.19 649.065 278.19 636.989V636.937C278.19 624.86 283.385 617.319 292.139 617.319C300.893 617.319 306.14 624.86 306.14 636.937V636.989C306.14 649.065 300.893 656.633 292.139 656.633ZM292.139 652.493C297.939 652.493 301.367 646.534 301.367 636.989V636.937C301.367 627.392 297.939 621.485 292.139 621.485C286.338 621.485 282.963 627.392 282.963 636.937V636.989C282.963 646.534 286.338 652.493 292.139 652.493Z" fill="black"/>
<path d="M183.717 808.659C174.989 808.659 169.241 804.546 168.793 797.717L168.767 797.321H175.279L175.332 797.638C175.833 800.907 179.182 802.938 183.954 802.938C188.753 802.938 191.759 800.802 191.759 797.532V797.506C191.759 794.658 189.781 793.129 184.877 792.101L180.79 791.257C173.302 789.701 169.61 786.221 169.61 780.552V780.525C169.637 773.828 175.517 769.293 183.717 769.293C192.022 769.293 197.454 773.67 197.85 780.183L197.876 780.631H191.363L191.311 780.314C190.862 776.992 187.936 775.015 183.664 775.015C179.208 775.041 176.439 777.124 176.439 780.156V780.183C176.439 782.872 178.522 784.454 183.11 785.403L187.224 786.247C195.134 787.882 198.588 791.099 198.588 797.031V797.058C198.588 804.15 192.998 808.659 183.717 808.659ZM213.406 808.554C207.553 808.554 204.784 806.181 204.784 800.433V785.113H200.829V780.051H204.784V772.958H211.455V780.051H216.649V785.113H211.455V799.879C211.455 802.621 212.668 803.491 215.067 803.491C215.7 803.491 216.201 803.412 216.649 803.386V808.316C215.885 808.422 214.725 808.554 213.406 808.554ZM229.042 808.475C223.452 808.475 219.682 805.021 219.682 800.037V799.984C219.682 795.027 223.531 792.048 230.308 791.626L237.611 791.178V789.253C237.611 786.432 235.766 784.718 232.443 784.718C229.332 784.718 227.434 786.168 227.012 788.225L226.959 788.462H220.868L220.895 788.146C221.29 783.188 225.588 779.471 232.681 779.471C239.668 779.471 244.177 783.162 244.177 788.778V808H237.611V803.702H237.453C235.845 806.629 232.733 808.475 229.042 808.475ZM226.221 799.773C226.221 802.067 228.119 803.465 230.993 803.465C234.764 803.465 237.611 800.96 237.611 797.638V795.528L231.23 795.924C227.987 796.135 226.221 797.532 226.221 799.747V799.773ZM249.477 808V780.051H256.042V784.428H256.174C257.624 781.422 260.472 779.471 264.717 779.471C270.86 779.471 274.367 783.426 274.367 789.912V808H267.802V791.23C267.802 787.249 265.956 785.008 262.212 785.008C258.441 785.008 256.042 787.75 256.042 791.784V808H249.477ZM290.029 808.554C282.963 808.554 278.48 803.017 278.48 794.025V793.999C278.48 784.981 282.989 779.471 290.003 779.471C293.958 779.471 297.148 781.501 298.73 784.85H298.889V769.952H305.454V808H298.889V803.254H298.73C297.148 806.55 294.063 808.554 290.029 808.554ZM292.007 803.017C296.067 803.017 298.889 799.51 298.889 794.025V793.999C298.889 788.541 296.041 785.008 292.007 785.008C287.814 785.008 285.178 788.436 285.178 793.999V794.025C285.178 799.589 287.788 803.017 292.007 803.017Z" fill="#02DFD8"/>
<path d="M183.849 872.633C176.835 872.633 169.399 867.781 169.399 853.675V853.622C169.399 840.808 174.857 833.319 184.165 833.319C190.625 833.319 195.45 837.011 196.716 842.548L196.795 842.891H191.97L191.864 842.601C190.73 839.463 188.015 837.512 184.112 837.512C177.02 837.512 174.225 844.394 174.014 852.383C173.987 852.646 173.987 852.91 173.987 853.2H174.093C175.622 849.825 179.524 847.083 184.692 847.083C191.943 847.083 197.322 852.436 197.322 859.66V859.713C197.322 867.201 191.627 872.633 183.849 872.633ZM175.121 859.66C175.121 864.538 178.918 868.414 183.796 868.414C188.647 868.414 192.497 864.617 192.497 859.818V859.766C192.497 854.809 188.885 851.249 183.875 851.249C178.892 851.249 175.121 854.782 175.121 859.634V859.66ZM215.437 833.952L204.705 881.229H200.328L211.06 833.952H215.437ZM231.6 872.633C223.531 872.633 217.783 868.098 217.783 861.717V861.664C217.783 856.971 221.079 853.068 225.957 851.935V851.829C221.791 850.537 219.154 847.373 219.154 843.365V843.312C219.154 837.564 224.401 833.319 231.6 833.319C238.798 833.319 244.045 837.564 244.045 843.312V843.365C244.045 847.373 241.408 850.537 237.242 851.829V851.935C242.12 853.068 245.416 856.971 245.416 861.664V861.717C245.416 868.098 239.668 872.633 231.6 872.633ZM231.6 850.062C236.188 850.062 239.325 847.452 239.325 843.761V843.708C239.325 840.017 236.188 837.406 231.6 837.406C227.012 837.406 223.874 840.017 223.874 843.708V843.761C223.874 847.452 227.012 850.062 231.6 850.062ZM231.6 868.493C236.847 868.493 240.591 865.54 240.591 861.427V861.374C240.591 857.208 236.873 854.229 231.6 854.229C226.326 854.229 222.608 857.208 222.608 861.374V861.427C222.608 865.54 226.353 868.493 231.6 868.493Z" fill="black"/>
<path d="M716 128C714.895 129.105 714.895 130.895 716 132L734 150C735.105 151.105 736.895 151.105 738 150C739.105 148.895 739.105 147.105 738 146L722 130L738 114C739.105 112.895 739.105 111.105 738 110C736.895 108.895 735.105 108.895 734 110L716 128ZM719 130V127.172H718V130V132.828H719V130Z" fill="black"/>
<path d="M781.507 149V110.952H805.264V116.041H787.413V128.091H803.761V133.074H787.413V149H781.507ZM820.609 149.554C812.462 149.554 807.531 143.99 807.531 135.236V135.21C807.531 126.535 812.541 120.734 820.319 120.734C828.098 120.734 832.87 126.324 832.87 134.656V136.581H813.227C813.332 141.828 816.206 144.887 820.741 144.887C824.116 144.887 826.357 143.146 827.069 141.063L827.148 140.853H832.554L832.501 141.143C831.604 145.546 827.333 149.554 820.609 149.554ZM820.346 125.401C816.654 125.401 813.807 127.906 813.306 132.547H827.228C826.753 127.748 824.063 125.401 820.346 125.401ZM852.039 149.554C848.058 149.554 844.973 147.55 843.338 144.307H843.206V149H837.511V110.952H843.206V125.981H843.338C844.999 122.712 848.163 120.734 852.092 120.734C859.053 120.734 863.641 126.271 863.641 135.104V135.131C863.641 143.964 859.079 149.554 852.039 149.554ZM850.536 144.649C855.019 144.649 857.813 141.037 857.813 135.131V135.104C857.813 129.251 855.019 125.612 850.536 125.612C846.238 125.612 843.18 129.356 843.18 135.104V135.131C843.18 140.905 846.212 144.649 850.536 144.649ZM868.044 149V121.262H873.739V126.008H873.871C874.768 122.765 877.088 120.734 880.252 120.734C881.069 120.734 881.781 120.866 882.229 120.945V126.245C881.781 126.061 880.779 125.929 879.672 125.929C876.007 125.929 873.739 128.328 873.739 132.468V149H868.044ZM895.202 149.554C889.111 149.554 885.631 145.625 885.631 139.244V121.262H891.326V138.137C891.326 142.329 893.277 144.649 897.232 144.649C901.24 144.649 903.824 141.775 903.824 137.451V121.262H909.546V149H903.824V144.834H903.692C902.242 147.629 899.421 149.554 895.202 149.554ZM923.336 149.501C917.799 149.501 914.081 146.1 914.081 141.116V141.063C914.081 136.238 917.825 133.285 924.391 132.89L931.932 132.441V130.358C931.932 127.3 929.954 125.454 926.421 125.454C923.125 125.454 921.095 127.01 920.62 129.225L920.567 129.462H915.188L915.215 129.172C915.61 124.399 919.75 120.734 926.579 120.734C933.355 120.734 937.653 124.32 937.653 129.884V149H931.932V144.623H931.826C930.218 147.603 927.001 149.501 923.336 149.501ZM919.829 140.984C919.829 143.41 921.833 144.939 924.892 144.939C928.899 144.939 931.932 142.224 931.932 138.611V136.449L925.155 136.871C921.728 137.082 919.829 138.585 919.829 140.932V140.984ZM943.19 149V121.262H948.886V126.008H949.018C949.914 122.765 952.234 120.734 955.398 120.734C956.216 120.734 956.928 120.866 957.376 120.945V126.245C956.928 126.061 955.926 125.929 954.818 125.929C951.153 125.929 948.886 128.328 948.886 132.468V149H943.19ZM965.022 158.255C963.915 158.255 962.729 158.123 962.043 157.991V153.535C962.491 153.641 963.15 153.746 963.915 153.746C966.604 153.746 968.081 153.034 969.03 150.345L969.505 149.026L959.406 121.262H965.576L972.563 143.832H972.748L979.735 121.262H985.747L975.411 150.292C973.354 156.04 970.454 158.255 965.022 158.255ZM1009.79 149V116.806H1009.66L999.722 123.661V118.071L1009.74 110.952H1015.57V149H1009.79ZM1021.9 156.646L1024.06 143.146H1029.75L1025.9 156.646H1021.9ZM1043.99 149V144.939L1057.39 131.466C1062.45 126.403 1063.58 124.399 1063.58 121.446V121.394C1063.56 117.781 1060.81 115.197 1056.96 115.197C1052.51 115.197 1049.32 118.203 1049.27 122.053V122.211H1043.68V122.053C1043.68 115.25 1049.45 110.319 1056.89 110.319C1064.19 110.319 1069.41 114.907 1069.41 121.051V121.104C1069.41 125.454 1067.38 128.539 1060.55 135.289L1051.9 143.779V144.017H1070.02V149H1043.99ZM1089.11 149.633C1080.01 149.633 1074.58 142.065 1074.58 129.989V129.937C1074.58 117.86 1080.01 110.319 1089.11 110.319C1098.18 110.319 1103.63 117.86 1103.63 129.937V129.989C1103.63 142.065 1098.18 149.633 1089.11 149.633ZM1089.11 144.702C1094.51 144.702 1097.68 139.112 1097.68 129.989V129.937C1097.68 120.813 1094.51 115.276 1089.11 115.276C1083.67 115.276 1080.54 120.813 1080.54 129.937V129.989C1080.54 139.112 1083.67 144.702 1089.11 144.702ZM1108.49 149V144.939L1121.88 131.466C1126.94 126.403 1128.08 124.399 1128.08 121.446V121.394C1128.05 117.781 1125.31 115.197 1121.46 115.197C1117 115.197 1113.81 118.203 1113.76 122.053V122.211H1108.17V122.053C1108.17 115.25 1113.94 110.319 1121.38 110.319C1128.68 110.319 1133.9 114.907 1133.9 121.051V121.104C1133.9 125.454 1131.87 128.539 1125.04 135.289L1116.4 143.779V144.017H1134.51V149H1108.49ZM1154.02 149.633C1146.24 149.633 1139.07 144.228 1139.07 130.543V130.49C1139.07 117.808 1144.74 110.319 1154.26 110.319C1161.04 110.319 1166.12 114.195 1167.34 119.864L1167.42 120.181H1161.48L1161.41 119.917C1160.32 117.069 1157.85 115.276 1154.21 115.276C1147.67 115.276 1145 121.578 1144.77 129.119C1144.74 129.462 1144.74 129.805 1144.74 130.147H1144.87C1146.38 126.72 1150.23 124.03 1155.39 124.03C1162.67 124.03 1167.92 129.33 1167.92 136.528V136.581C1167.92 144.175 1162.04 149.633 1154.02 149.633ZM1145.9 136.607C1145.9 141.116 1149.43 144.676 1153.94 144.676C1158.45 144.676 1162.04 141.169 1162.04 136.739V136.687C1162.04 132.099 1158.66 128.829 1154.02 128.829C1149.41 128.829 1145.9 132.072 1145.9 136.581V136.607Z" fill="black"/>
<path d="M1233 132C1234.1 130.895 1234.1 129.105 1233 128L1215 110C1213.9 108.895 1212.1 108.895 1211 110C1209.9 111.105 1209.9 112.895 1211 114L1227 130L1211 146C1209.9 147.105 1209.9 148.895 1211 150C1212.1 151.105 1213.9 151.105 1215 150L1233 132ZM1230 130V132.828H1231V130V127.172H1230V130Z" fill="black"/>
<g opacity="0.26">
<path d="M1304 622C1304 786.029 1171.03 919 1007 919C842.971 919 710 786.029 710 622C710 457.971 842.971 325 1007 325C1171.03 325 1304 457.971 1304 622ZM781.107 622C781.107 746.758 882.242 847.893 1007 847.893C1131.76 847.893 1232.89 746.758 1232.89 622C1232.89 497.242 1131.76 396.107 1007 396.107C882.242 396.107 781.107 497.242 781.107 622Z" fill="#EE1648"/>
<path d="M1304 622C1304 786.029 1171.03 919 1007 919C842.971 919 710 786.029 710 622C710 457.971 842.971 325 1007 325C1171.03 325 1304 457.971 1304 622ZM781.107 622C781.107 746.758 882.242 847.893 1007 847.893C1131.76 847.893 1232.89 746.758 1232.89 622C1232.89 497.242 1131.76 396.107 1007 396.107C882.242 396.107 781.107 497.242 781.107 622Z" fill="black" fill-opacity="0.6"/>
</g>
<g opacity="0.26">
<path d="M1231.14 622.08C1231.14 745.828 1130.83 846.145 1007.08 846.145C883.331 846.145 783.014 745.828 783.014 622.08C783.014 498.332 883.331 398.015 1007.08 398.015C1130.83 398.015 1231.14 498.332 1231.14 622.08ZM839.296 622.08C839.296 714.744 914.415 789.863 1007.08 789.863C1099.74 789.863 1174.86 714.744 1174.86 622.08C1174.86 529.416 1099.74 454.297 1007.08 454.297C914.415 454.297 839.296 529.416 839.296 622.08Z" fill="#8CF401"/>
<path d="M1231.14 622.08C1231.14 745.828 1130.83 846.145 1007.08 846.145C883.331 846.145 783.014 745.828 783.014 622.08C783.014 498.332 883.331 398.015 1007.08 398.015C1130.83 398.015 1231.14 498.332 1231.14 622.08ZM839.296 622.08C839.296 714.744 914.415 789.863 1007.08 789.863C1099.74 789.863 1174.86 714.744 1174.86 622.08C1174.86 529.416 1099.74 454.297 1007.08 454.297C914.415 454.297 839.296 529.416 839.296 622.08Z" fill="black" fill-opacity="0.6"/>
</g>
<g opacity="0.26">
<path d="M1175.23 622.18C1175.23 714.99 1099.99 790.228 1007.18 790.228C914.369 790.228 839.131 714.99 839.131 622.18C839.131 529.369 914.369 454.131 1007.18 454.131C1099.99 454.131 1175.23 529.369 1175.23 622.18ZM897.081 622.18C897.081 682.985 946.374 732.278 1007.18 732.278C1067.99 732.278 1117.28 682.985 1117.28 622.18C1117.28 561.374 1067.99 512.081 1007.18 512.081C946.374 512.081 897.081 561.374 897.081 622.18Z" fill="#02DFD8"/>
<path d="M1175.23 622.18C1175.23 714.99 1099.99 790.228 1007.18 790.228C914.369 790.228 839.131 714.99 839.131 622.18C839.131 529.369 914.369 454.131 1007.18 454.131C1099.99 454.131 1175.23 529.369 1175.23 622.18ZM897.081 622.18C897.081 682.985 946.374 732.278 1007.18 732.278C1067.99 732.278 1117.28 682.985 1117.28 622.18C1117.28 561.374 1067.99 512.081 1007.18 512.081C946.374 512.081 897.081 561.374 897.081 622.18Z" fill="black" fill-opacity="0.6"/>
</g>
<path d="M987.28 357.618C985.971 340.058 999.172 324.581 1016.77 325.161C1056.4 326.465 1095.49 335.698 1131.67 352.435C1177.53 373.645 1217.23 406.206 1246.99 447.036C1276.76 487.866 1295.62 535.616 1301.78 585.767C1307.95 635.919 1301.21 686.814 1282.22 733.637C1263.23 780.46 1232.6 821.664 1193.24 853.35C1153.88 885.035 1107.09 906.155 1057.29 914.711C1007.49 923.267 956.333 918.977 908.655 902.245C871.035 889.043 836.564 868.44 807.221 841.767C794.191 829.922 795.502 809.622 808.675 797.936L814.165 793.067C827.337 781.381 847.363 782.792 860.786 794.19C881.812 812.044 906.003 825.956 932.2 835.15C968.464 847.876 1007.37 851.139 1045.25 844.631C1083.13 838.124 1118.72 822.06 1148.65 797.961C1178.59 773.861 1201.88 742.522 1216.33 706.909C1230.77 671.296 1235.89 632.586 1231.21 594.442C1226.52 556.298 1212.18 519.98 1189.53 488.925C1166.89 457.871 1136.71 433.105 1101.82 416.973C1076.63 405.318 1049.58 398.447 1022.06 396.609C1004.49 395.435 989.136 382.497 987.826 364.937L987.28 357.618Z" fill="#EE1648"/>
<path d="M990.323 426.873C988.993 411.389 1000.5 397.572 1016.03 398.193C1058.57 399.894 1099.97 413.698 1135.21 438.266C1178.19 468.226 1209.31 512.298 1223.17 562.823C1237.02 613.348 1232.73 667.131 1211.05 714.823C1193.27 753.933 1164.71 786.919 1128.98 810.082C1115.94 818.538 1098.99 812.525 1092.24 798.528C1085.48 784.531 1091.54 767.887 1104.21 758.889C1128.23 741.834 1147.48 718.647 1159.82 691.527C1176.05 655.815 1179.26 615.541 1168.89 577.708C1158.51 539.874 1135.21 506.872 1103.03 484.438C1078.59 467.401 1050.2 457.277 1020.84 454.861C1005.35 453.587 991.652 442.358 990.323 426.873Z" fill="#8CF401"/>
<path d="M986.999 484.578C984.677 468.745 995.687 453.762 1011.68 454.191C1037.89 454.894 1063.71 461.724 1087.02 474.306C1118.87 491.503 1144.32 518.526 1159.57 551.352C1174.83 584.179 1179.08 621.054 1171.69 656.49C1164.3 691.925 1145.66 724.028 1118.56 748.019C1091.45 772.01 1057.32 786.607 1021.25 789.638C985.18 792.669 949.094 783.972 918.364 764.841C887.634 745.71 863.903 717.167 850.703 683.461C841.045 658.801 837.402 632.341 839.888 606.243C841.405 590.313 857.615 581.204 873.049 585.433C888.482 589.661 897.149 605.712 897.082 621.715C897.024 635.524 899.564 649.309 904.663 662.329C913.311 684.411 928.859 703.111 948.991 715.645C969.124 728.179 992.766 733.877 1016.4 731.892C1040.03 729.906 1062.39 720.342 1080.15 704.624C1097.91 688.906 1110.12 667.874 1114.96 644.658C1119.8 621.442 1117.02 597.283 1107.02 575.776C1097.03 554.27 1080.35 536.566 1059.49 525.299C1047.18 518.656 1033.81 514.461 1020.09 512.841C1004.2 510.964 989.321 500.411 986.999 484.578Z" fill="#02DFD8"/>
<path d="M1034.53 357.13C1035.4 356.26 1035.4 354.851 1034.53 353.982L1020.36 339.816C1019.49 338.947 1018.08 338.947 1017.21 339.816C1016.35 340.685 1016.35 342.095 1017.21 342.964L1029.81 355.556L1017.21 368.147C1016.35 369.017 1016.35 370.426 1017.21 371.295C1018.08 372.164 1019.49 372.164 1020.36 371.295L1034.53 357.13ZM1005.17 355.556V357.782H1032.95V355.556V353.33H1005.17V355.556Z" fill="black"/>
<path d="M1044.76 424.735C1045.63 423.866 1045.63 422.457 1044.76 421.587L1030.6 407.422C1029.73 406.553 1028.32 406.553 1027.45 407.422C1026.58 408.291 1026.58 409.7 1027.45 410.57L1040.04 423.161L1027.45 435.753C1026.58 436.622 1026.58 438.032 1027.45 438.901C1028.32 439.77 1029.73 439.77 1030.6 438.901L1044.76 424.735ZM1041.73 423.161V425.387H1043.19V423.161V420.935H1041.73V423.161Z" fill="black"/>
<path d="M1034.53 424.735C1035.4 423.866 1035.4 422.457 1034.53 421.587L1020.36 407.422C1019.49 406.553 1018.08 406.553 1017.21 407.422C1016.35 408.291 1016.35 409.7 1017.21 410.57L1029.81 423.161L1017.21 435.753C1016.35 436.622 1016.35 438.032 1017.21 438.901C1018.08 439.77 1019.49 439.77 1020.36 438.901L1034.53 424.735ZM1005.17 423.161V425.387H1032.95V423.161V420.935H1005.17V423.161Z" fill="black"/>
<path d="M1020.63 471.914C1019.77 471.045 1018.36 471.045 1017.49 471.914L1003.32 486.079C1002.45 486.949 1002.45 488.358 1003.32 489.227C1004.19 490.097 1005.6 490.097 1006.47 489.227L1019.06 476.636L1031.65 489.227C1032.52 490.097 1033.93 490.097 1034.8 489.227C1035.67 488.358 1035.67 486.949 1034.8 486.079L1020.63 471.914ZM1019.06 501.276H1021.29V473.488H1019.06H1016.83V501.276H1019.06Z" fill="black"/>
</svg>
